<svg xmlns="http://www.w3.org/2000/svg" xmlns:xlink="http://www.w3.org/1999/xlink" id="Group_5076" data-name="Group 5076" width="124.93" height="82.63" viewBox="0 0 124.93 82.63"><defs><clipPath id="clip-path"><rect id="Rectangle_68" data-name="Rectangle 68" width="124.93" height="82.63" fill="none"></rect></clipPath></defs><g id="Group_5075" data-name="Group 5075" clip-path="url(#clip-path)"><path id="Path_68" data-name="Path 68" d="M210.921,2.616H162.948v.007L148.047,30.4a22.513,22.513,0,0,1,3.277,3.268L162.949,12.6,187.708,57.5h-6.075l-18.682-34.17h0L154.382,39.04a18.722,18.722,0,0,1,.847,3.155,14.915,14.915,0,0,1,.035,4.971l7.684-13.635h0l16.065,28.746h16.068L183.347,40.489h20.306v-5h-23l-2.154-4h25.156v-5H175.8l-5.309-9.857h40.429v-5H167.8l-2.154-4h45.278Z" transform="translate(-99.519 -1.759)" fill="#fff"></path><path id="Path_69" data-name="Path 69" d="M41.028,27.543c4.373,5.338,9.823,7.291,15.093,9.181a51.833,51.833,0,0,1,8.229,3.505,2.444,2.444,0,0,1,1.327,3.088A6.427,6.427,0,0,1,59.3,47.687,17.538,17.538,0,0,1,50.081,45.2a13.365,13.365,0,0,1-2.774-2.158l-1.419-1.684-2.421,4.92S48.89,52.709,59.3,52.709,75,40.487,66.825,35.859s-16.344-4.7-21.912-11.5c-4.327-5.283-1.8-19.338,10.711-19.339,3.588,0,8,1.156,13.3,4.008l2.1-4.572C65.442,1.5,60.264,0,55.625,0V0A17.649,17.649,0,0,0,45.67,2.852a16.974,16.974,0,0,0-5.9,6.905A19.175,19.175,0,0,0,37.96,18.98a14.819,14.819,0,0,0,3.068,8.563" transform="translate(-25.498)" fill="#fff"></path><path id="Path_70" data-name="Path 70" d="M82.088,58.484c-.933-5.264-4.088-9.64-9.376-13.008a59.138,59.138,0,0,0-12.462-5.49c-1.169-.405-2.273-.788-3.219-1.151A4.861,4.861,0,0,1,54,34.457a2.387,2.387,0,0,1,1.883-2.4,8.212,8.212,0,0,1,2.768-.47,13.206,13.206,0,0,1,7.4,2.75l1.116.981,2.125-4.817a18.2,18.2,0,0,0-10.64-3.936,13.3,13.3,0,0,0-4.433.754c-8.027,2.82-6.147,13.451,1.013,16.2s20.1,5.641,21.912,15.837c1.226,6.913-6.259,14.99-16.974,14.99-5.091,0-10.908-1.821-16.871-6.456l-2.5,4.411a37.191,37.191,0,0,0,9.538,5.272,28.644,28.644,0,0,0,9.829,1.794,24.666,24.666,0,0,0,10.381-2.23,22.051,22.051,0,0,0,7.671-5.781,17.732,17.732,0,0,0,3.349-5.967,14.257,14.257,0,0,0,.517-6.91" transform="translate(-27.428 -17.861)" fill="#fff"></path><path id="Path_71" data-name="Path 71" d="M8.949,217.52v2.232H0V206.938H2.6V217.52Z" transform="translate(0 -139.106)" fill="#fff"></path><path id="Path_72" data-name="Path 72" d="M32.4,217.28a3.727,3.727,0,0,1,3.017,1.529V217.4h2.418v9.3H35.416V225.3a3.787,3.787,0,0,1-3.017,1.529,4.778,4.778,0,0,1,0-9.548m.413,7.73a2.967,2.967,0,0,0,0-5.89,2.97,2.97,0,0,0,0,5.89" transform="translate(-18.695 -146.059)" fill="#fff"></path><path id="Path_73" data-name="Path 73" d="M63.881,207h2.4v4.9a3.8,3.8,0,0,1,3.038-1.529,4.778,4.778,0,0,1,0,9.548,3.826,3.826,0,0,1-3.038-1.529V219.8h-2.4ZM68.9,218.1a2.97,2.97,0,0,0,0-5.89,2.967,2.967,0,0,0,0,5.89" transform="translate(-42.942 -139.15)" fill="#fff"></path><path id="Path_74" data-name="Path 74" d="M101.4,217.279a4.69,4.69,0,0,1,4.919,5.332H98.837a2.5,2.5,0,0,0,2.563,2.253,2.4,2.4,0,0,0,2.17-1.157l2.459.083a5.048,5.048,0,0,1-9.672-1.736,4.931,4.931,0,0,1,5.043-4.774m2.48,3.927a2.437,2.437,0,0,0-2.48-2.129,2.464,2.464,0,0,0-2.459,2.129Z" transform="translate(-64.772 -146.058)" fill="#fff"></path><rect id="Rectangle_67" data-name="Rectangle 67" width="2.418" height="12.793" transform="translate(42.726 67.853)" fill="#fff"></rect><path id="Path_75" data-name="Path 75" d="M167.679,219.8V207h6.262a3.976,3.976,0,1,1,0,7.915h-3.658V219.8Zm2.6-7.109h3.658a1.734,1.734,0,0,0,1.737-1.737,1.715,1.715,0,0,0-1.737-1.715h-3.658Z" transform="translate(-112.716 -139.15)" fill="#fff"></path><path id="Path_76" data-name="Path 76" d="M203.37,217.658h2.4v1.426A3.5,3.5,0,0,1,208.7,217.7a2.7,2.7,0,0,1,1.24.248l-1.157,2.191a1.738,1.738,0,0,0-.724-.145,2.376,2.376,0,0,0-2.294,2.315v4.65h-2.4Z" transform="translate(-136.708 -146.313)" fill="#fff"></path><path id="Path_77" data-name="Path 77" d="M227.688,217.28a4.783,4.783,0,1,1-5.084,4.774,4.937,4.937,0,0,1,5.084-4.774m-2.666,4.774a2.67,2.67,0,1,0,2.666-2.811,2.746,2.746,0,0,0-2.666,2.811" transform="translate(-149.637 -146.059)" fill="#fff"></path><path id="Path_78" data-name="Path 78" d="M253.632,242.887l.868-1.984a1.378,1.378,0,0,1-.765-1.136,1.519,1.519,0,0,1,1.591-1.364,1.5,1.5,0,0,1,1.571,1.364,1.171,1.171,0,0,1-.207.62l-1.509,2.5Z" transform="translate(-170.495 -160.257)" fill="#fff"></path><path id="Path_79" data-name="Path 79" d="M298.275,218.286V219.8H289.76V207H291.5v11.284Z" transform="translate(-194.781 -139.15)" fill="#fff"></path><path id="Path_80" data-name="Path 80" d="M328.545,218.286V219.8H320.03V207h1.736v11.284Z" transform="translate(-215.128 -139.15)" fill="#fff"></path><path id="Path_81" data-name="Path 81" d="M346.075,213.388a6.3,6.3,0,0,1,6.2-6.386,6.152,6.152,0,0,1,5.291,3.121l-1.405.868a4.544,4.544,0,0,0-3.885-2.5,4.918,4.918,0,0,0,.02,9.8,4.556,4.556,0,0,0,3.865-2.5l1.405.868a6.172,6.172,0,0,1-5.27,3.141,6.322,6.322,0,0,1-6.221-6.407" transform="translate(-232.636 -139.149)" fill="#fff"></path></g></svg>