<svg xmlns="http://www.w3.org/2000/svg" xmlns:xlink="http://www.w3.org/1999/xlink" width="233.379" height="92.606" viewBox="0 0 233.379 92.606"><defs><clipPath id="clip-path"><rect id="Rectangle_110" data-name="Rectangle 110" width="233.379" height="92.606" fill="#fff"></rect></clipPath></defs><g id="Group_5152" data-name="Group 5152" transform="translate(0 0)"><g id="Group_5151" data-name="Group 5151" transform="translate(0 0)" clip-path="url(#clip-path)"><path id="Path_110" data-name="Path 110" d="M38.435,0c.238,0,151.113,0,151.348,0A60.739,60.739,0,0,1,207,2.258a24.527,24.527,0,0,1,11.8,7.481q4.451,5.224,6.514,14.186A102.083,102.083,0,0,1,227.379,46.3a102.048,102.048,0,0,1-2.064,22.377q-2.065,8.963-6.514,14.186A24.5,24.5,0,0,1,207,90.347,60.927,60.927,0,0,1,189.709,92.6l-151.274,0a61.749,61.749,0,0,1-17.927-2.258A24.91,24.91,0,0,1,8.641,82.867Q4.126,77.645,2.062,68.681A101.962,101.962,0,0,1,0,46.3,102,102,0,0,1,2.062,23.925Q4.125,14.963,8.641,9.739A24.933,24.933,0,0,1,20.508,2.258,61.749,61.749,0,0,1,38.435,0m0,15.606q-6.838,0-10.641,2.708t-5.418,9.352Q20.764,34.308,20.764,46.3q0,11.867,1.611,18.572t5.418,9.416Q31.595,77,38.435,77c.265,0,151.163,0,151.42-.009q6.149-.15,9.729-2.7,3.8-2.711,5.417-9.416T206.613,46.3q0-12-1.613-18.638t-5.417-9.352q-3.622-2.577-9.875-2.7c-.21,0-151.06-.006-151.274-.006" transform="translate(0 0)" fill="#fff"></path></g></g></svg>