<svg xmlns="http://www.w3.org/2000/svg" xmlns:xlink="http://www.w3.org/1999/xlink" width="110.131" height="72.841" viewBox="0 0 110.131 72.841"><defs><linearGradient id="linear-gradient" y1="0.424" x2="1.05" y2="0.415" gradientUnits="objectBoundingBox"><stop offset="0" stop-color="#f15b40"></stop><stop offset="1" stop-color="#7f3f98"></stop></linearGradient><linearGradient id="linear-gradient-2" x1="-0.115" y1="0.139" x2="0.185" y2="1.083" xlink:href="#linear-gradient"></linearGradient><linearGradient id="linear-gradient-3" x1="0.33" y1="-0.16" x2="0.61" y2="0.949" xlink:href="#linear-gradient"></linearGradient></defs><g id="Group_5082" data-name="Group 5082" transform="translate(-6667 326)"><path id="Path_68" data-name="Path 68" d="M203.473,2.616H161.182v.006L148.047,27.11a19.845,19.845,0,0,1,2.888,2.881l10.248-18.575L183.009,51h-5.355L161.186,20.88h0l-7.551,13.845a16.5,16.5,0,0,1,.746,2.781,13.148,13.148,0,0,1,.031,4.382l6.774-12.02h0L175.347,55.21h14.165L179.166,36h17.9V31.591H176.789l-1.9-3.525h22.176V23.653H172.514l-4.68-8.689h35.639V10.553H165.457l-1.9-3.525h39.914Z" transform="translate(6561.731 -327.86)" fill="url(#linear-gradient)"></path><path id="Path_69" data-name="Path 69" d="M40.662,24.28c3.855,4.706,8.659,6.428,13.305,8.093a45.693,45.693,0,0,1,7.254,3.09,2.154,2.154,0,0,1,1.17,2.722,5.666,5.666,0,0,1-5.618,3.854,15.461,15.461,0,0,1-8.131-2.2,11.781,11.781,0,0,1-2.446-1.9l-1.251-1.484-2.134,4.337a18.9,18.9,0,0,0,13.961,5.674c9.18,0,13.834-10.774,6.63-14.854S48.995,27.467,44.086,21.475C40.272,16.818,42.5,4.427,53.528,4.427c3.163,0,7.048,1.019,11.723,3.533L67.1,3.929C62.183,1.322,57.618,0,53.529,0V0a15.558,15.558,0,0,0-8.775,2.514,14.963,14.963,0,0,0-5.2,6.087,16.9,16.9,0,0,0-1.592,8.13,13.063,13.063,0,0,0,2.7,7.548" transform="translate(6640.029 -326)" fill="url(#linear-gradient-2)"></path><path id="Path_70" data-name="Path 70" d="M77.2,54.7c-.823-4.64-3.6-8.5-8.265-11.467A52.132,52.132,0,0,0,57.947,38.4c-1.03-.357-2-.695-2.838-1.015a4.285,4.285,0,0,1-2.671-3.859,2.1,2.1,0,0,1,1.66-2.112A7.24,7.24,0,0,1,56.538,31a11.642,11.642,0,0,1,6.523,2.424l.984.865,1.874-4.247a16.04,16.04,0,0,0-9.38-3.469,11.721,11.721,0,0,0-3.908.665c-7.076,2.486-5.419,11.857.893,14.28s17.723,4.973,19.316,13.961c1.08,6.094-5.518,13.214-14.963,13.214C53.388,68.69,48.26,67.085,43,63l-2.2,3.889a32.784,32.784,0,0,0,8.408,4.648,25.25,25.25,0,0,0,8.665,1.581,21.744,21.744,0,0,0,9.151-1.966,19.439,19.439,0,0,0,6.762-5.1,15.632,15.632,0,0,0,2.953-5.26A12.568,12.568,0,0,0,77.2,54.7" transform="translate(6637.987 -344.892)" fill="url(#linear-gradient-3)"></path><path id="Path_71" data-name="Path 71" d="M7.889,216.266v1.968H0v-11.3H2.3v9.328Z" transform="translate(6667 -473.142)" fill="#808285"></path><path id="Path_72" data-name="Path 72" d="M31.856,217.28a3.285,3.285,0,0,1,2.66,1.348v-1.239h2.132v8.2H34.515v-1.239a3.338,3.338,0,0,1-2.66,1.348,4.212,4.212,0,0,1,0-8.417m.364,6.814a2.616,2.616,0,0,0,0-5.192,2.618,2.618,0,0,0,0,5.192" transform="translate(6647.225 -480.496)" fill="#808285"></path><path id="Path_73" data-name="Path 73" d="M63.881,207h2.114v4.318a3.346,3.346,0,0,1,2.678-1.348,4.212,4.212,0,0,1,0,8.417,3.373,3.373,0,0,1-2.678-1.348v1.239H63.881Zm4.427,9.784a2.618,2.618,0,0,0,0-5.192,2.616,2.616,0,0,0,0,5.192" transform="translate(6621.578 -473.188)" fill="#808285"></path><path id="Path_74" data-name="Path 74" d="M100.8,217.279a4.135,4.135,0,0,1,4.336,4.7h-6.6a2.207,2.207,0,0,0,2.259,1.986,2.113,2.113,0,0,0,1.913-1.02l2.168.073a4.45,4.45,0,0,1-8.526-1.53,4.347,4.347,0,0,1,4.445-4.209m2.186,3.462a2.149,2.149,0,0,0-2.186-1.876,2.172,2.172,0,0,0-2.168,1.876Z" transform="translate(6598.486 -480.495)" fill="#808285"></path><rect id="Rectangle_67" data-name="Rectangle 67" width="2.132" height="11.277" transform="translate(6704.664 -266.185)" fill="#808285"></rect><path id="Path_75" data-name="Path 75" d="M167.679,218.28V207h5.52a3.505,3.505,0,1,1,0,6.977h-3.224v4.3Zm2.3-6.267H173.2a1.528,1.528,0,0,0,1.531-1.531,1.512,1.512,0,0,0-1.531-1.512h-3.224Z" transform="translate(6547.773 -473.188)" fill="#808285"></path><path id="Path_76" data-name="Path 76" d="M203.37,217.658h2.113v1.257a3.082,3.082,0,0,1,2.587-1.221,2.38,2.38,0,0,1,1.093.218l-1.02,1.931a1.533,1.533,0,0,0-.638-.128,2.1,2.1,0,0,0-2.022,2.041v4.1H203.37Z" transform="translate(6522.395 -480.764)" fill="#808285"></path><path id="Path_77" data-name="Path 77" d="M227.086,217.28a4.217,4.217,0,1,1-4.482,4.208,4.352,4.352,0,0,1,4.482-4.208m-2.35,4.208a2.354,2.354,0,1,0,2.35-2.478,2.421,2.421,0,0,0-2.35,2.478" transform="translate(6508.718 -480.496)" fill="#808285"></path><path id="Path_78" data-name="Path 78" d="M253.632,242.355l.765-1.749a1.214,1.214,0,0,1-.674-1,1.339,1.339,0,0,1,1.4-1.2,1.32,1.32,0,0,1,1.385,1.2,1.032,1.032,0,0,1-.182.546l-1.33,2.2Z" transform="translate(6486.657 -495.514)" fill="#808285"></path><path id="Path_79" data-name="Path 79" d="M297.266,216.95v1.33H289.76V207h1.53v9.947Z" transform="translate(6460.968 -473.188)" fill="#121212"></path><path id="Path_80" data-name="Path 80" d="M327.536,216.95v1.33H320.03V207h1.53v9.947Z" transform="translate(6439.444 -473.188)" fill="#121212"></path><path id="Path_81" data-name="Path 81" d="M346.075,212.631A5.554,5.554,0,0,1,351.541,207a5.423,5.423,0,0,1,4.664,2.751l-1.239.765a4.006,4.006,0,0,0-3.425-2.2,4.335,4.335,0,0,0,.018,8.635,4.017,4.017,0,0,0,3.407-2.2l1.239.765a5.441,5.441,0,0,1-4.646,2.769,5.573,5.573,0,0,1-5.484-5.648" transform="translate(6420.926 -473.188)" fill="#121212"></path></g></svg>