<svg xmlns="http://www.w3.org/2000/svg" xmlns:xlink="http://www.w3.org/1999/xlink" width="187" height="46" viewBox="0 0 187 46"><defs><clipPath id="clip-path"><rect id="Rectangle_110" data-name="Rectangle 110" width="187" height="46" transform="translate(0.054 0.097)" fill="#fff"></rect></clipPath></defs><g id="Group_5151" data-name="Group 5151" transform="translate(-0.054 -0.097)" clip-path="url(#clip-path)"><path id="Path_110" data-name="Path 110" d="M16.227.021,170.315.615a22.04,22.04,0,0,1,7.269,1.121,10.33,10.33,0,0,1,4.982,3.719,17.819,17.819,0,0,1,2.75,7.053,59.5,59.5,0,0,1,.871,11.127,59.483,59.483,0,0,1-.871,11.126,17.81,17.81,0,0,1-2.75,7.053,10.321,10.321,0,0,1-4.982,3.719,22.107,22.107,0,0,1-7.3,1.122L16.227,46.066a22.394,22.394,0,0,1-7.569-1.123,10.478,10.478,0,0,1-5.01-3.719A17.537,17.537,0,0,1,.871,34.171,59.43,59.43,0,0,1,0,23.044,59.45,59.45,0,0,1,.871,11.917,17.546,17.546,0,0,1,3.648,4.864a10.488,10.488,0,0,1,5.01-3.719A22.394,22.394,0,0,1,16.227.021m0,7.76a6.794,6.794,0,0,0-4.492,1.346,8.017,8.017,0,0,0-2.287,4.65,48.574,48.574,0,0,0-.68,9.267,48.65,48.65,0,0,0,.68,9.234,8.051,8.051,0,0,0,2.287,4.682,6.794,6.794,0,0,0,4.492,1.346c.112,0,154.01.59,154.119.587a6.5,6.5,0,0,0,4.108-1.342,8.054,8.054,0,0,0,2.287-4.682,48.643,48.643,0,0,0,.681-9.234,48.566,48.566,0,0,0-.681-9.267,8.021,8.021,0,0,0-2.287-4.65,6.541,6.541,0,0,0-4.169-1.343c-.089,0-153.966-.6-154.057-.6" transform="translate(0 -0.077)" fill="#fff"></path></g></svg>